<?xml version="1.0" encoding="UTF-8" standalone="no"?>
<!-- Created with Inkscape (http://www.inkscape.org/) -->

<svg
   xmlns:dc="http://purl.org/dc/elements/1.1/"
   xmlns:cc="http://creativecommons.org/ns#"
   xmlns:rdf="http://www.w3.org/1999/02/22-rdf-syntax-ns#"
   xmlns:svg="http://www.w3.org/2000/svg"
   xmlns="http://www.w3.org/2000/svg"
   xmlns:xlink="http://www.w3.org/1999/xlink"
   xmlns:sodipodi="http://sodipodi.sourceforge.net/DTD/sodipodi-0.dtd"
   xmlns:inkscape="http://www.inkscape.org/namespaces/inkscape"
   version="1.1"
   id="svg10"
   width="232"
   height="325"
   viewBox="0 0 232 325"
   sodipodi:docname="777777777.svg"
   inkscape:version="0.92.1 r15371">
  <metadata
     id="metadata16">
    <rdf:RDF>
      <cc:Work
         rdf:about="">
        <dc:format>image/svg+xml</dc:format>
        <dc:type
           rdf:resource="http://purl.org/dc/dcmitype/StillImage" />
        <dc:title></dc:title>
      </cc:Work>
    </rdf:RDF>
  </metadata>
  <defs
     id="defs14" />
  <sodipodi:namedview
     pagecolor="#ffffff"
     bordercolor="#666666"
     borderopacity="1"
     objecttolerance="10"
     gridtolerance="10"
     guidetolerance="10"
     inkscape:pageopacity="0"
     inkscape:pageshadow="2"
     inkscape:window-width="1920"
     inkscape:window-height="1017"
     id="namedview12"
     showgrid="false"
     inkscape:zoom="1.3046154"
     inkscape:cx="78.213791"
     inkscape:cy="73.553935"
     inkscape:window-x="-8"
     inkscape:window-y="-8"
     inkscape:window-maximized="1"
     inkscape:current-layer="svg10" />
  
  <path
     style="fill:#000000"
     d="M 119.19689,318.75 C 113.15374,309.20752 106.24092,300.19587 97.5,292.97504 97.290042,282.10425 97.080084,271.23346 96.870127,260.36267 90.7026,254.95852 82.549023,254.60432 74.737079,255 67.269604,246.95926 57.495062,237.73653 60.73435,225.6398 c 0.949734,-12.42258 8.137821,-24.86532 18.235241,-31.10791 11.341568,6.19198 -7.593245,-9.175 3.149736,-1.8925 7.899081,2.94926 21.918003,10.00495 24.348893,12.4557 -11.00916,-5.27508 -28.260558,-15.0551 -36.307202,-0.24924 -7.129276,10.28768 -10.074315,24.96789 -4.146613,36.35325 3.238869,5.48384 10.887822,10.89989 5.76919,0.81594 -3.887213,-15.96169 13.699268,-24.14375 26.466382,-26.52891 16.614233,-3.35327 34.227703,-5.31453 50.901613,-1.47521 6.67188,3.88694 17.97036,9.86964 9.48678,-2.01787 -6.31294,-10.10482 -15.47239,-17.8212 -24.63837,-25.13964 10.13135,-3.18772 24.0332,5.38962 31.93407,-0.92774 14.90062,1.75653 22.82092,12.68175 37.71305,14.60035 5.59084,0.71777 21.46692,3.79143 6.20744,4.33014 -6.42621,0.33161 -17.97483,-3.3337 -7.76389,4.0199 4.89238,5.67775 7.53551,10.35998 12.50591,14.76968 11.17022,9.90625 -3.8875,3.43307 -9.09658,0.40545 -0.71411,8.26143 -2.42932,18.34955 -9.0609,23.42725 -0.25124,4.88194 -2.31712,14.73453 -5.59788,4.34975 -2.55103,-8.09577 -24.84993,-28.58566 -26.10631,-11.10453 -9.4772,10.43006 1.25245,21.17649 6.23176,31.40899 2.5901,12.84596 8.50246,29.6658 1.21959,41.09612 -7.65875,6.83781 -17.81436,12.06633 -21.12259,-1.66229 -8.58162,-12.70241 -18.48267,-25.75763 -17.92626,-41.95023 1.33785,-5.76857 -6.24767,-16.15694 -3.61035,-4.49945 3.94753,14.44332 2.64884,30.27613 10.79477,43.5144 0.69932,4.89725 13.30763,18.23639 2.79517,16.3688 -6.56427,0 -13.12855,0 -19.69282,0 -1.4091,-2.08333 -2.81819,-4.16667 -4.22729,-6.25 z m 49.34031,-48.31522 c 0.9493,-13.27951 -22.86716,3.90298 -8.70387,-1.42237 3.98861,-0.70795 13.47963,10.53861 8.70387,1.42237 z m -9.37267,-17.19451 c 4.16633,-11.67813 5.41442,-31.06578 -12.64581,-30.58356 -13.07319,-1.28322 -34.64276,1.29087 -20.37187,17.61943 1.97747,3.22227 2.52332,16.1778 4.55958,7.03486 -0.4952,10.0545 18.24678,5.32504 19.12514,15.92906 5.5378,-2.61665 11.87167,-2.16221 9.33296,-9.99979 z m -34.09685,-10.24336 c -0.9257,-13.20942 -18.67359,-25.09695 -26.396914,-10.00353 -0.158379,12.75247 16.716444,25.8794 27.849094,24.18009 0.7142,-4.73272 -0.2102,-9.61053 -1.45218,-14.17656 z M 112,196.94098 c 2.03304,-2.19464 2.26407,3.34627 0,0 z M 41.428939,189.4729 c -6.114361,-8.75855 -5.166901,-20.76144 -7.447372,-31.46936 -4.483192,-5.21348 -17.231894,-1.03353 -20.205179,-11.47078 -6.810257,-5.56373 -18.7472893,-10.62289 -4.6821253,-15.93884 8.4758873,-12.62363 24.8549283,-8.44779 27.8996503,5.97787 9.899034,8.96773 3.724262,-3.61181 -1.460851,-7.04479 3.132419,1.89025 15.494311,15.97817 12.040468,2.93398 -4.018917,-10.04488 -22.129255,-12.62472 -25.108208,-13.50431 11.087768,2.24306 23.803119,-18.12225 30.083432,-11.38003 -7.498914,-3.22986 -7.087891,10.8336 -16.522545,7.76169 -6.220776,5.81103 13.827344,15.16629 17.927704,18.16631 -2.017783,-6.44938 -10.543075,-15.08673 -0.33393,-6.25046 5.302091,2.60006 12.736653,14.10394 3.215369,5.42147 -9.944432,-12.77319 11.452098,25.67389 6.454983,6.68471 -0.360535,-5.78424 5.848902,-13.86969 2.21305,-2.83676 -6.052068,9.34596 11.956366,18.09888 10.513321,19.0168 -3.940692,-1.36254 -10.885117,-6.36399 -8.449401,1.32864 -5.4687,-6.02411 -10.589709,-29.28786 -19.855102,-16.63265 7.580543,4.34833 7.468797,20.03495 11.744044,28.87878 5.166411,6.89762 -11.451671,33.60611 -18.027308,20.35773 z m -9.454267,-59.30418 c -2.577806,-10.05434 -21.887399,-4.75997 -5.901576,-0.48752 3.125838,0.96782 10.87788,8.82268 5.901576,0.48752 z M 131.5,186 c 0.26392,-3.66733 3.00162,3.36878 0,0 z M 76,179.62443 c -2.795318,-5.24865 -6.20746,-16.99144 -0.820652,-5.58921 -0.162108,0.70727 3.820142,7.09203 0.820652,5.58921 z m 70.02932,-1.43813 c -14.25053,0.2067 6.99452,-8.44771 9.84002,-14.37204 6.24068,-1.91746 11.87269,-7.89232 14.15756,-3.4752 0.58589,-8.45701 6.93414,18.35453 4.71466,5.81515 -4.60388,-11.8775 0.60714,-12.76574 10.83643,-16.5214 1.48757,0.32982 14.92937,12.45687 13.62144,-0.16247 -3.29564,-7.38439 -18.89486,-0.48652 -5.81573,-5.88691 8.62937,-1.0175 14.82998,-2.0409 17.78262,5.34458 8.72324,-8.13027 -3.7146,3.72724 5.31934,3.98279 11.37107,0.60178 21.76899,13.91778 7.91144,19.60341 -13.77446,2.23205 -28.20793,-4.57849 -41.03329,-1.80796 -10.92722,2.26611 -21.89243,6.43698 -33.15558,8.41858 -1.39045,-0.0738 -3.03395,0.0451 -4.17891,-0.93853 z M 225,171 c 8.36669,-3.93827 -4.02109,-12.92026 -5.79669,-3.59213 -3.98791,3.96126 3.45591,6.11027 5.79669,3.59213 z m -12.58179,-1.60699 c 5.87914,-11.4744 -12.12011,2.76666 0,0 z m -30.89737,-3.72085 c -1.50193,-6.70106 -2.84029,-16.98898 -2.88479,-3.64133 -1.42538,2.98758 6.68346,9.94662 2.88479,3.64133 z m 23.96382,0.74593 c 11.46207,-6.44482 -2.99448,-24.29155 -6.85202,-8.1044 -2.82193,-0.42581 -17.55615,-1.64701 -8.47308,5.22681 5.65641,-0.59778 10.48605,6.58571 15.3251,2.87759 z M 229.15827,161.5 c -8.49384,-12.37236 -8.30997,4.95335 0,0 z M 130,177.05902 c 2.37279,-5.50354 1.06552,3.56897 0,0 z M 106.42857,174 c 1.51154,-4.34707 1.38377,4.19891 0,0 z M 135,169 c -4.22065,-4.99547 -7.27468,-25.58515 -4.76234,-23.16589 2.76442,2.52767 -0.58897,16.36402 5.64778,12.14751 C 144.11347,152.62442 160.57042,147.50418 152,157 c -4.74585,-10.0557 -22.27764,7.219 -14.87868,15 l -0.98559,-0.88125 z m -4,1.11803 c 1.89677,-4.98121 2.811,1.74421 0,0 z M 69,163 c -1.10251,-8.51792 4.11469,8.04313 0,0 z m -1.5,-4 c 0.263926,-3.66733 3.001612,3.36878 0,0 z m 92.75,-0.68933 c 8.06913,-0.71091 1.01086,1.52229 0,0 z m -62.519032,-1.96661 c 7.079102,-0.74967 0.388671,1.60871 0,0 z M 91.75,155.33772 c 5.013818,-0.89443 1.576668,1.71685 0,0 z m 66.32895,-7.92105 c 0.97257,-3.5458 0.62175,4.34078 0,0 z M 99.5,144 c 1.51654,-3.80866 3.05358,3.16631 0,0 z m 55.90633,-1.25 c -5.62781,-7.07753 -8.88223,-16.05451 -13.0113,-23.2925 6.65797,6.99874 10.70986,20.18912 14.51469,24.88156 z m 58.40617,0.56689 c 6.14916,-1.00312 -1.85775,1.93437 0,0 z M 131,140.00908 c 11.4172,-8.96125 0.55747,5.85166 0,0 z M 94.55887,132.4682 c -3.894897,-6.02639 -6.748968,-8.53859 0.455212,-2.27601 5.089268,1.15743 9.865838,-16.25276 5.242678,-2.38064 -1.565312,1.50501 -2.184946,9.43754 -5.69789,4.65665 z M 76.5,125.97237 c -5.495971,1.21386 -13.638138,-8.81819 -9.49462,-6.88904 2.209418,6.23175 22.230891,8.03968 20.058916,10.44907 C 83.508811,128.45007 80.014894,127.17739 76.5,125.97237 Z m 17.232362,-0.25808 c -2.547616,-7.95351 5.911108,6.94302 0,0 z m -34.653415,0.6175 c -2.923776,-7.80037 2.050394,-1.78563 0,0 z m 4.428132,-1.32034 c 1.73009,-1.88949 3.376525,3.046 0,0 z m 14.369906,-9.99204 c -3.925191,-2.82449 -14.29712,-19.924163 -5.27663,-8.1352 3.166161,4.42643 17.72522,21.19071 6.703612,9.71772 z M 92.2,117.8 c -3.786778,-7.11695 7.472199,-10.4109 0.3,-3.3 -0.264149,2.85762 6.095546,5.33001 -0.3,3.3 z m 48.95789,-1.8 c 0.73678,-4.94452 0.67614,4.91859 0,0 z m -75.954345,-7.38084 c 1.456776,-6.79338 -1.808975,-8.621279 -6.370303,-7.8524 8.745673,-2.736489 12.606128,-3.728713 18.903533,0.23324 4.781193,-2.2234 -10.419929,-4.393334 1.015055,-7.65358 -3.180854,5.527172 11.167953,12.96336 -1.201123,8.74238 -8.084146,-1.43417 -13.769209,-3.909394 -11.807364,6.20108 -0.209599,6.25776 -0.405896,10.75495 -0.50084,1.83765 l -0.02057,-0.79656 z m 74.912455,3.28088 c -3.38127,-5.40593 -7.11941,-13.651393 -0.52835,-3.80318 1.65614,-0.40265 1.05466,7.08068 0.52835,3.80318 z M 93,106.11803 c 1.896774,-4.98121 2.811002,1.74421 0,0 z m -39.55887,-3.66777 c 9.235715,-4.583205 -3.885094,4.3615 0,0 z m 47.59458,-1.84294 c 16.44678,-9.725822 -3.804614,5.17655 0,0 z M 116.75,96.916667 c -3.23195,-7.067105 8.31877,7.083093 0,0 z m -11,-2.568938 C 96.795929,92.352595 99.83447,77.128636 89.332708,87.708004 83.113085,92.21832 73.758491,89.117606 85.84153,87.928898 95.918323,85.466213 108.43429,68.742528 98.982983,61.932394 98.495243,58.117849 103.77543,55.062926 95.120346,57.46406 82.307259,60.995535 94.364337,56.606841 97.55772,52.96474 91.496375,52.08311 81.882315,60.581089 86.265133,47.706912 86.949603,41.13812 92.435037,31.83937 89.663772,44.033982 90.279343,54.429891 106.73562,40.595809 93.750927,37.893433 85.373304,33.452715 81.63707,24.444566 76.874334,36.777583 68.473712,39.029311 69.074377,47.632169 68.429154,51.33444 69.310359,48.01295 62.357441,40.064811 62.650754,49.386055 70.028843,49.662886 74.620608,63.167857 69,59 c -11.056279,0.990391 -9.272318,16.138092 -4.344274,20.580991 6.727104,3.4892 9.124043,7.87039 -0.64494,6.048304 C 60.96961,88.147851 63.01077,93.352304 58,87.725474 46.099319,87.696027 45.37275,69.137343 45.193715,59.493764 49.05072,46.022085 31.069577,41.754079 33.282356,27.582648 29.350333,16.909617 37.226306,-2.9270043 48.313438,12.60704 c 10.923373,9.984735 23.519998,-6.6687163 36.378895,-2.077911 7.014909,-0.6838542 14.728158,7.677626 18.850417,-0.8953213 5.2458,-9.86724203 18.53732,-12.9205154 18.87761,1.7838363 4.27435,14.297 -5.32011,26.082751 -5.63555,39.458368 0.0855,7.742134 0.26689,15.482845 0.40064,23.224253 -3.98056,6.449629 -17.521686,9.960806 -14.13585,17.140978 5.41522,3.962961 12.83708,-0.667288 9.76779,6.606951 -2.3576,-1.163177 -4.71202,-2.332773 -7.06739,-3.500465 z M 67.64573,57.497127 c 1.907005,-5.532469 -13.434112,-0.263899 -1.738386,1.319071 l 0.740001,-0.349387 z M 50.792595,40.485649 C 52.761463,30.49822 45.843255,11.450593 36.368011,9.9575875 33.468182,21.808001 35.572008,40.366286 48.751336,44.699152 L 49.845844,43.40227 Z M 117,32.912889 c 3.46436,-6.756523 5.84398,-30.0493806 -4.62632,-26.4616432 -2.6788,10.6638992 -6.64264,22.8442422 -5.79418,32.3416122 3.51216,1.998094 9.01073,-2.645252 10.4205,-5.879969 z M 97,35.708208 C 94.358698,32.802126 82.948245,22.012584 91.317185,30.567022 93.113815,32.05901 94.985286,35.417335 97,35.708208 Z M 76.680886,81.614219 c -5.339281,-3.2325 -11.691314,-9.452552 -1.349262,-3.837657 7.054605,8.656723 16.250802,-7.194979 18.787126,-7.016915 -5.104801,4.904917 -8.254483,20.990934 -17.437864,10.854572 z m -2.113551,-8.539815 c -6.749271,-11.20742 19.376647,-7.933179 7.103709,1.218499 -2.28057,1.273383 -5.377098,0.753822 -7.103709,-1.218499 z"
     id="path20"
     inkscape:connector-curvature="0" />
</svg>
