<?xml version="1.0" encoding="UTF-8" standalone="no"?>
<!-- Created with Inkscape (http://www.inkscape.org/) -->

<svg
   xmlns:dc="http://purl.org/dc/elements/1.1/"
   xmlns:cc="http://creativecommons.org/ns#"
   xmlns:rdf="http://www.w3.org/1999/02/22-rdf-syntax-ns#"
   xmlns:svg="http://www.w3.org/2000/svg"
   xmlns="http://www.w3.org/2000/svg"
   xmlns:xlink="http://www.w3.org/1999/xlink"
   xmlns:sodipodi="http://sodipodi.sourceforge.net/DTD/sodipodi-0.dtd"
   xmlns:inkscape="http://www.inkscape.org/namespaces/inkscape"
   version="1.1"
   id="svg52"
   width="158"
   height="149"
   viewBox="0 0 158 149"
   sodipodi:docname="descrp-shape-black-11.svg"
   inkscape:version="0.92.1 r15371">

  <path
     style="fill:#000000"
     d="m 49.953357,147.08715 c 0.563049,-1.05206 1.409262,-2.06456 1.880475,-2.25 0.471213,-0.18543 1.155425,-1.55665 1.52047,-3.04714 0.91795,-3.74803 -1.343667,-4.73143 -10.148018,-4.41261 -5.009495,0.1814 -7.702594,0.76178 -9.005283,1.9407 -2.565457,2.3217 -2.756311,2.23472 -5.634861,-2.5681 -2.827299,-4.71731 -3.37147,-3.92167 -1.075722,1.57282 0.819729,1.96189 2.282229,4.03361 3.25,4.60383 1.45636,0.8581 1.519401,1.19464 0.365822,1.95292 -2.475725,1.62737 -7.031441,-0.81263 -9.104587,-4.87633 C 19.277741,134.66393 15.75445,103.70614 15.550274,83.317473 15.391597,67.472126 15.337294,67.092292 12.94411,65.087788 11.185859,63.615098 10.839059,62.815144 11.708261,62.237094 12.553392,61.675053 11.879038,60.605731 9.464448,58.679085 5.0584582,55.163462 3.3507946,51.798372 1.494427,42.973507 -0.1957742,34.93857 -0.5338258,12.534268 0.97524915,8.5650997 2.5004486,4.5535212 5.3580458,5.3675868 9.3741935,10.957771 13.664117,16.929032 15.9559,18.202032 27.241371,20.882326 l 8.693254,2.064643 3.165612,-2.89134 c 1.741086,-1.590237 6.122319,-4.390805 9.736073,-6.223484 5.892339,-2.988242 7.504141,-3.347518 15.617076,-3.481101 C 69.429023,10.269118 75.3,9.7173532 77.5,9.1249004 86.718144,6.642484 96.232204,8.5904928 106.40809,15.043846 c 4.68987,2.974232 4.94699,3.020122 10.25991,1.831143 4.53903,-1.015791 6.73448,-2.376493 13.14074,-8.1444254 10.51052,-9.46322504 10.85202,-9.58429148 17.23535,-6.1100488 6.18959,3.3687949 10.01504,8.6176952 10.64878,14.6111832 0.24823,2.347566 -0.47081,8.954417 -1.59786,14.681892 -2.27328,11.552444 -5.90449,18.833824 -12.27587,24.615883 -3.02938,2.749173 -3.43554,3.543999 -2.29478,4.49074 1.90976,1.584961 -0.0545,4.620351 -3.84506,5.94174 -2.63021,0.916893 -2.81572,1.302919 -2.2913,4.767858 3.9286,25.95722 2.88078,47.112899 -2.74807,55.483639 -1.89527,2.81849 -3.17875,3.48852 -9.01205,4.70467 -4.94523,1.03101 -6.99032,1.11347 -7.4918,0.30206 -0.43285,-0.70037 -1.41225,-0.0411 -2.62951,1.77004 -2.13636,3.17866 -5.38044,5.00978 -8.87548,5.00978 -1.25115,0 -4.04247,1.33748 -6.202951,2.97218 -2.160476,1.6347 -4.490639,2.9847 -5.178139,3 C 92.5625,144.98748 92,145.9 92,147 c 0,1.93809 -0.666667,2 -21.535184,2 -20.898244,0 -21.504905,-0.0566 -20.511459,-1.91285 z" />
</svg>
